<svg width="1024" height="448" viewBox="0 0 1024 448" fill="none" xmlns="http://www.w3.org/2000/svg">
<g clip-path="url(#clip0_14_148)">
<path d="M113.362 268.372H182.601C187.83 268.372 191.474 267.259 193.85 264.873C196.069 262.647 197.336 259.148 197.336 254.695V247.061C197.336 241.653 196.227 237.836 193.85 235.61C191.632 233.383 187.83 232.111 182.601 232.111H151.388C143.308 232.111 136.495 231.316 130.791 229.884C125.245 228.453 120.651 226.067 117.165 222.886C113.679 219.706 111.144 215.73 109.718 210.799C108.134 206.028 107.5 200.144 107.5 193.464V192.351C107.5 185.512 108.292 179.627 109.718 174.856C111.303 170.085 113.679 165.95 117.165 162.769C120.651 159.588 125.245 157.202 130.791 155.771C136.336 154.34 143.149 153.544 151.388 153.544H214.923V176.446H147.744C137.921 176.446 133.167 180.9 133.167 189.647V196.008C133.167 204.915 138.079 209.368 147.744 209.368H179.115C187.196 209.368 194.009 210.163 199.713 211.595C205.258 213.185 209.853 215.571 213.339 218.751C216.824 221.932 219.359 226.226 220.785 231.475C222.37 236.723 223.004 242.926 223.004 250.242V252.309C223.004 258.989 222.211 264.873 220.785 269.804C219.201 274.734 216.824 278.71 213.339 281.891C209.853 285.072 205.258 287.298 199.713 288.889C194.167 290.479 187.354 291.115 179.115 291.115H113.362V268.213V268.372Z" fill="white"/>
<path d="M276.081 176.765H227.44V153.863H350.707V176.765H301.907V291.275H276.24V176.765H276.081Z" fill="white"/>
<path d="M512.475 153.863H538.143V220.501L598.667 153.863H629.246L576.802 212.072L636.059 291.275H606.431L560.483 230.203L538.301 254.854V291.275H512.634V153.863H512.475Z" fill="white"/>
<path d="M652.379 153.863H678.046V291.275H652.379V153.863Z" fill="white"/>
<path d="M706.407 153.863H732.074V252.15C732.074 258.194 733.342 262.329 735.719 264.715C738.254 267.1 742.373 268.373 748.235 268.373H801.788V291.275H751.721C743.165 291.275 736.035 290.479 730.332 289.048C724.628 287.458 719.874 284.913 716.389 281.414C712.903 277.915 710.21 273.144 708.625 267.418C707.041 261.693 706.249 254.536 706.249 245.948V153.863H706.407Z" fill="white"/>
<path d="M836.487 244.834L782.459 153.863H812.88L849.321 219.07L886.079 153.863H916.5L862.155 244.834V291.275H836.487V244.834Z" fill="white"/>
<path fill-rule="evenodd" clip-rule="evenodd" d="M421.53 151.477C422.797 150.841 424.382 150.841 425.65 151.477L491.878 183.762C492.035 183.92 492.502 184.39 492.511 184.399C492.668 184.557 493.137 185.339 493.145 185.353C493.462 185.671 493.462 185.989 493.462 186.307V186.626H494.096C494.254 186.943 494.254 187.58 494.254 187.58L494.73 259.307C494.73 261.057 493.779 262.647 492.195 263.442L427.234 296.364C426.917 296.523 426.442 296.841 426.442 296.841H426.125C425.174 297.159 424.065 297 423.115 296.523L358.154 264.555C356.411 263.76 355.46 262.17 355.46 260.42L354.985 188.375V187.261C354.985 186.943 355.301 186.148 355.301 186.148C355.618 185.83 356.094 185.035 356.094 185.035C356.253 184.875 356.728 184.399 356.728 184.399C378.276 173.425 399.982 162.451 421.53 151.477ZM425.65 170.404C424.699 169.927 423.59 169.927 422.639 170.404L406.478 178.673L455.278 203.325C455.278 203.325 455.279 203.484 455.437 203.484C455.437 203.484 455.437 203.643 455.595 203.802V230.68C455.595 230.693 455.592 231.477 455.278 231.634L445.455 236.882C445.431 236.882 444.185 236.878 443.871 236.406V209.845L394.279 184.717L374.631 194.578C374.622 194.587 374.313 194.899 374.157 195.055C374.15 195.069 373.836 195.693 373.523 195.85C373.521 195.859 373.365 196.487 373.365 196.645C373.365 196.645 373.365 197.28 373.365 197.44L373.681 250.878C373.681 252.151 374.315 253.423 375.583 253.9L423.749 277.597C423.756 277.6 425.176 278.073 425.966 277.756H426.125C426.136 277.751 426.448 277.595 426.759 277.438L474.925 253.105C476.034 252.469 476.827 251.356 476.827 249.924L476.509 196.804C476.509 196.804 476.509 196.328 476.509 196.169L475.4 196.327C475.4 196.308 475.398 195.686 475.242 195.373C475.234 195.358 474.923 194.737 474.766 194.737C474.759 194.73 474.448 194.417 474.292 194.259L425.65 170.404Z" fill="white"/>
</g>
<defs>
<clipPath id="clip0_14_148">
<rect width="809" height="146" fill="white" transform="translate(107.5 151)"/>
</clipPath>
</defs>
</svg>
